<svg width="91" height="25" viewBox="0 0 91 25" fill="none" xmlns="http://www.w3.org/2000/svg">
<path d="M5.80783 5.06685V9.82527H13.4816V14.2486H5.80783V19.4091H14.4869V24H0.07762V0.47598H14.4869V5.06685H5.80783ZM26.1154 18.6384L30.1701 5.30142H36.2689L29.634 24H22.5634L15.9284 5.30142H22.0607L26.1154 18.6384ZM55.8045 14.3491C55.8045 14.8853 55.771 15.4438 55.704 16.0246H42.7356C42.8249 17.1863 43.1936 18.0799 43.8414 18.7054C44.5116 19.3086 45.327 19.6102 46.2876 19.6102C47.7174 19.6102 48.7115 19.007 49.27 17.8007H55.3689C55.0561 19.0293 54.4864 20.1352 53.6598 21.1181C52.8556 22.1011 51.8391 22.8718 50.6104 23.4303C49.3817 23.9888 48.0078 24.2681 46.4887 24.2681C44.6568 24.2681 43.026 23.8771 41.5962 23.0952C40.1665 22.3133 39.0495 21.1963 38.2452 19.7442C37.441 18.2921 37.0389 16.5943 37.0389 14.6507C37.0389 12.7071 37.4298 11.0093 38.2117 9.55719C39.016 8.10509 40.133 6.98809 41.5627 6.20619C42.9925 5.42429 44.6345 5.03334 46.4887 5.03334C48.2982 5.03334 49.9067 5.41312 51.3141 6.17268C52.7216 6.93224 53.8162 8.01573 54.5981 9.42315C55.4024 10.8306 55.8045 12.4726 55.8045 14.3491ZM49.9402 12.8412C49.9402 11.8582 49.6051 11.0763 48.9349 10.4955C48.2647 9.91463 47.427 9.62421 46.4217 9.62421C45.4611 9.62421 44.6457 9.90346 43.9755 10.462C43.3276 11.0205 42.9255 11.8135 42.7691 12.8412H49.9402ZM69.7182 5.10036C71.9075 5.10036 73.65 5.81524 74.9458 7.245C76.2638 8.65242 76.9229 10.596 76.9229 13.0757V24H71.2262V13.8465C71.2262 12.5954 70.9022 11.6236 70.2544 10.9311C69.6065 10.2386 68.7352 9.89229 67.6406 9.89229C66.5459 9.89229 65.6747 10.2386 65.0268 10.9311C64.3789 11.6236 64.055 12.5954 64.055 13.8465V24H58.3248V5.30142H64.055V7.78116C64.6359 6.95458 65.4178 6.30672 66.4007 5.83758C67.3837 5.3461 68.4895 5.10036 69.7182 5.10036ZM90.8237 19.141V24H87.9084C85.8307 24 84.2111 23.4974 83.0494 22.4921C81.8877 21.4644 81.3069 19.8001 81.3069 17.4991V10.0598H79.0282V5.30142H81.3069V0.744061H87.0371V5.30142H90.7902V10.0598H87.0371V17.5661C87.0371 18.1246 87.1711 18.5267 87.4392 18.7724C87.7073 19.0182 88.1541 19.141 88.7796 19.141H90.8237Z" fill="white"/>
</svg>
